<?xml version="1.0" encoding="UTF-8"?>
<svg width="453px" height="117px" viewBox="0 0 453 117" version="1.1" xmlns="http://www.w3.org/2000/svg" xmlns:xlink="http://www.w3.org/1999/xlink">
    <!-- Generator: Sketch 53 (72520) - https://sketchapp.com -->
    <title>RalfMüler</title>
    <desc>Created with Sketch.</desc>
    <g id="Page-1" stroke="none" stroke-width="1" fill="none" fill-rule="evenodd">
        <g id="Desktop-HD" transform="translate(-412.000000, -46.000000)" fill="#11263F" fill-rule="nonzero">
            <path d="M473.36,109.64 C494.15,137.99 524.57,153.38 524.57,153.38 C513.32,179.12 481.01,134.12 467.06,112.52 C461.12,115.13 455.18,117.29 449.69,119 C448.7,121.07 447.71,123.14 446.81,125.21 C440.6,139.52 438.8,146.09 438.8,146.09 C431.24,144.11 431.78,134.21 435.38,122.51 C431.78,123.05 428.72,123.32 426.47,123.23 C410.27,122.6 412.34,108.11 412.34,108.11 C425.03,94.16 439.52,88.04 451.94,85.52 C454.01,81.74 455.54,78.95 456.17,77.69 C462.02,66.35 462.11,61.49 462.11,61.49 C473.63,63.02 472.82,71.93 467.6,84.08 C475.61,84.17 480.83,85.43 480.83,85.43 C475.43,85.97 470.39,86.78 465.89,87.77 C463.28,93.26 460.04,99.29 456.71,105.41 C458.42,104.87 459.95,104.33 461.57,103.79 C460.85,102.62 460.49,101.99 460.49,101.99 C462.47,97.76 466.79,99.74 466.79,99.74 C467.15,100.28 467.42,100.82 467.78,101.36 C493.43,90.83 498.83,78.14 500.09,72.92 C501.98,65.54 489.56,50.96 453.38,61.94 C417.11,72.92 417.65,88.04 417.65,88.04 C403.25,70.67 435.47,57.17 453.02,52.49 C484.25,44.12 514.13,58.97 507.83,77.51 C503.33,90.83 489.02,101.81 473.36,109.64 Z M424.04,112.79 C429.8,111.89 435.2,110.9 440.15,109.82 C442.49,104.24 445.1,98.75 447.62,93.89 C429.98,102.08 424.04,112.79 424.04,112.79 Z M540.05,98.75 C542.39,98.57 543.2,100.37 543.2,100.37 C536.9,110.63 524.48,127.82 524.48,127.82 C521.06,127.82 516.02,123.14 516.02,123.14 C515.03,121.34 515.12,119.36 515.66,117.38 C509.63,125.57 505.67,127.82 505.67,127.82 C496.85,127.82 495.05,119.9 495.05,119.9 C496.85,94.7 514.4,82.91 520.88,82.91 C533.93,82.91 530.24,93.53 530.24,93.53 C528.26,92.09 527,87.77 522.77,90.29 C502.07,102.8 503.69,122.15 503.69,122.15 C512.42,117.74 525.2,95.33 525.2,95.33 C525.2,95.33 529.79,95.69 530.96,99.65 C532.13,103.61 524.12,119.72 524.12,119.72 C529.16,116.84 540.05,98.75 540.05,98.75 Z M559.49,99.2 C561.83,99.02 562.64,100.82 562.64,100.82 C559.76,105.41 557.06,109.46 554.72,112.97 C549.41,122.78 545.99,133.31 545.99,133.31 C532.04,130.7 532.85,122.33 532.85,122.33 C532.85,107.3 559.13,56.09 559.13,56.09 C564.62,55.1 569.3,63.83 569.3,63.83 C546.53,92.36 542.3,121.88 541.94,124.94 C546.71,118.73 559.49,99.2 559.49,99.2 Z M565.7,104.69 C574.52,102.98 587.03,102.71 602.51,108.47 C602.51,108.47 606.74,113.6 604.94,123.41 C604.94,123.41 582.98,110 562.19,113.15 L561.47,114.59 C566.42,120.98 572.54,135.29 572.54,135.29 C565.16,155.27 554.99,159.95 551.03,161.75 C547.07,163.55 543.56,157.79 543.56,157.79 C546.53,140.42 550.13,126.38 553.73,115.13 C552.83,114.23 550.94,116.75 550.67,115.76 C549.86,112.7 550.58,111.08 551.12,110.27 C551.39,109.91 551.66,109.73 551.66,109.73 C552.11,109.55 552.47,109.37 552.92,109.19 C553.73,108.74 554.81,108.2 556.25,107.66 C566.24,80.03 575.87,72.47 575.87,72.47 C589.82,79.49 581.09,83.63 581.09,83.63 L581.09,81.74 C574.52,87.59 569.48,95.87 565.7,104.69 Z M565.34,131.96 C564.35,126.74 562.37,123.41 560.12,120.98 C555.89,136.28 554.81,149.51 554.81,149.51 C561.11,143.03 565.34,131.96 565.34,131.96 Z M654.800049,96.8599279 C654.843683,96.7958265 683.966473,54.0144707 692.6,46.64 C692.6,46.64 696.38,44.3 700.79,54.65 C700.79,54.65 690.53,83.27 687.74,93.26 C687.74,93.26 706.1,72.47 713.75,60.5 C713.75,60.5 719.69,61.13 722.48,69.23 C722.48,69.23 705.56,97.58 696.29,132.41 C702.32,127.46 710.69,114.14 717.71,99.83 C717.71,99.83 719.6,98.66 720.77,101.54 C720.77,101.54 710.69,131.15 696.02,144.65 C695.12,144.65 694.22,143.39 693.41,141.95 C691.79,140.87 687.11,137.36 687.11,133.31 C687.11,128.54 697.01,93.17 700.52,87.95 C700.52,87.95 682.25,109.28 677.48,113.06 C677.48,113.06 672.8,112.07 671.72,108.92 C671.72,108.92 686.03,73.91 686.75,69.41 C686.75,69.41 656.51,106.49 641.39,134.75 C641.39,134.75 633.47,132.5 633.11,127.28 C633.11,127.28 646.16,97.58 650.3,82.1 C650.3,82.1 643.46,91.73 633.83,96.95 C624.2,102.08 621.41,96.59 618.98,92.09 C618.98,92.09 640.31,89.39 654.8,61.85 C654.8,61.85 664.07,63.2 663.71,70.13 C663.350409,76.9622228 654.819432,96.8147865 654.800033,96.8599229 L654.800049,96.8599279 Z M750.02,116.93 C745.97,123.32 742.19,129.53 742.19,129.53 C742.46,131.24 740.93,131.87 740.93,131.87 C735.89,130.61 732.65,127.01 732.65,127.01 C732.47,122.51 732.83,118.19 733.55,114.05 C728.24,121.7 722.75,130.16 722.75,130.16 C712.22,130.16 711.32,120.89 711.32,120.89 C713.84,99.38 725.09,83 725.09,83 C729.23,83.99 732.11,87.77 732.11,87.77 C720.59,109.28 721.94,119.72 721.94,119.72 C725.72,115.49 731.39,109.64 735.62,105.5 C739.76,92.09 746.69,83 746.69,83 C750.02,84.62 753.17,87.95 753.17,87.95 C745.07,101 741.92,113.96 740.84,120.8 C746.78,113.42 757.76,98.93 757.76,98.93 C760.1,98.75 760.82,100.55 760.82,100.55 C756.77,107.03 752.99,112.52 750.02,116.93 Z M735.08,64.55 C735.08,64.55 736.61,66.89 731.39,72.2 C726.26,77.51 716.27,71.03 723.74,63.92 C731.3,56.72 735.08,64.55 735.08,64.55 Z M754.79,64.28 C754.79,64.28 756.32,66.62 751.1,71.93 C745.97,77.24 735.98,70.76 743.45,63.65 C751.01,56.45 754.79,64.28 754.79,64.28 Z M796.73,98.66 C799.07,98.48 799.88,100.19 799.88,100.19 C797,104.78 794.39,108.74 792.05,112.16 C786.83,121.88 783.41,132.23 783.41,132.23 C769.73,129.71 770.54,121.43 770.54,121.43 C770.54,119.36 770.99,116.48 771.89,113.24 C766.76,123.14 760.91,141.23 760.91,141.23 C747.14,138.62 747.95,130.43 747.95,130.43 C747.95,115.58 776.84,56.18 776.84,56.18 C782.24,55.19 786.83,63.83 786.83,63.83 C764.42,91.91 757.22,129.98 756.86,132.95 C761,127.64 773.24,105.68 776.39,100.01 C784.04,80.21 796.37,56.18 796.37,56.18 C801.77,55.19 806.45,63.83 806.45,63.83 C783.95,91.91 779.81,120.98 779.45,123.95 C784.13,117.92 796.73,98.66 796.73,98.66 Z M818.51,123.95 C816.17,126.47 817.34,125.03 815.54,126.56 C810.05,130.97 806.9,130.97 805.91,130.97 C804.11,130.97 785.48,128.9 793.04,106.4 C800.51,83.9 813.38,83.9 813.38,83.9 C813.38,83.9 824.18,86.42 824.18,93.8 C824.18,105.23 812.12,109.82 812.12,109.82 C806.63,109.82 804.47,106.76 804.2,103.79 C802.49,106.67 800.24,111.44 800.24,114.86 C800.24,122.6 803.84,123.68 803.84,123.68 C812.12,123.95 820.58,114.86 825.89,105.86 C828.59,102.08 830.3,99.47 830.3,99.47 C832.64,99.29 833.45,101.09 833.45,101.09 C827.69,110.18 822.47,119.63 818.51,123.95 Z M816.26,92.36 C813.47,92.36 809.87,95.51 806.45,100.55 C806.18,102.8 807.89,104.15 807.89,104.15 C813.02,101.99 816.26,92.36 816.26,92.36 Z M862.43,104.6 C855.32,115.04 846.23,125.93 842.99,128.9 C841.55,130.43 840.02,131.96 838.4,133.49 C838.4,133.49 830.12,129.44 829.31,126.38 C829.31,126.38 836.06,103.43 844.61,92.72 C844.61,92.72 843.17,90.65 841.19,88.04 C838.94,94.16 834.89,101.36 827.6,108.92 C827.6,108.92 825.35,109.19 825.62,106.76 C825.62,106.76 833.09,95.15 836.69,82.73 C834.71,80.57 832.64,78.68 830.84,77.78 C830.84,77.78 834.26,68.42 837.77,68.6 C841.37,68.69 843.71,71.84 843.71,71.84 C843.71,71.84 844.25,75.35 843.17,80.93 C847.13,84.8 851.81,90.02 853.34,94.52 C853.34,94.52 841.64,114.77 839.12,124.58 C839.12,124.58 845.15,118.82 854.69,107.93 C858.74,102.98 861.98,98.93 861.98,98.93 C864.32,98.75 865.04,100.55 865.04,100.55 C864.14,101.9 863.33,103.25 862.43,104.6 Z M836.51,74.9 C836.51,74.9 837.14,75.44 838.22,76.34 C838.22,75.89 838.31,75.44 838.4,74.9 C838.4,74.9 836.96,72.11 836.51,74.9 Z" id="RalfMüler"></path>
        </g>
    </g>
</svg>